# xmcd
# Track frame offsets:
# 150
# 15658
# 31690
# 48538
# 66055
# 78339
# 94218
# 110230
# 126407
# 150278
# 170749
# 181416
#
# Disc length: 2984 seconds
# Revision: 1
# Processed by: cddbd v1.5.2PL0 Copyright (c) Steve Scherf et al.
# Submitted via: VisiTrax 2.10.3.257 - For more info visit www.synapsa.com
#
DISCID=990ba60c
DTITLE=Bibbi, Eric - Diamond Days
DYEAR=2006
DGENRE=Blues
TTITLE0=tall cotton
TTITLE1=Destiny Blues
TTITLE2=Shine On
TTITLE3=So Glad
TTITLE4=Storybook Hero
TTITLE5=Diamond Days
TTITLE6=Dr Shine
TTITLE7=Heading Home
TTITLE8=In my Fathers House
TTITLE9=Forgiveness is Gold
TTITLE10=Buckets of Rain
TTITLE11=Still Livin' On
EXTD=
EXTT0=
EXTT1=
EXTT2=
EXTT3=
EXTT4=
EXTT5=
EXTT6=
EXTT7=
EXTT8=
EXTT9=
EXTT10=
EXTT11=
PLAYORDER=
